<svg xmlns="http://www.w3.org/2000/svg" viewBox="0 0 900 900" fill="none">
  <g stroke="#6b4732" stroke-width="2.2" stroke-linecap="round" stroke-linejoin="round" opacity=".92">
    <path d="M167 856C177 690 223 552 321 429C386 347 437 273 454 178"/>
    <path d="M454 178C442 151 442 127 454 99C473 125 477 150 454 178Z"/>
    <path d="M454 178C420 161 396 137 385 103C423 108 450 133 454 178Z"/>
    <path d="M454 178C487 158 513 131 526 96C489 104 463 129 454 178Z"/>
    <path d="M454 178C419 190 390 215 372 250C414 247 446 221 454 178Z"/>
    <path d="M454 178C489 188 519 211 539 245C497 244 464 220 454 178Z"/>
    <path d="M322 430C282 399 244 388 207 399C236 430 274 441 322 430Z"/>
    <path d="M322 430C333 384 355 350 389 327C391 371 370 407 322 430Z"/>
    <path d="M250 542C213 514 177 504 143 514C171 543 206 554 250 542Z"/>
    <path d="M250 542C261 502 281 471 312 450C315 491 294 524 250 542Z"/>
    <path d="M206 660C169 633 134 623 100 633C128 662 162 672 206 660Z"/>
    <path d="M206 660C219 620 241 591 273 571C272 611 249 643 206 660Z"/>
    <path d="M521 744C538 665 583 593 652 529"/>
    <path d="M652 529C628 510 615 487 613 459C642 468 659 489 652 529Z"/>
    <path d="M652 529C679 511 706 506 733 515C713 541 687 547 652 529Z"/>
    <path d="M596 602C571 584 548 579 526 588C545 609 568 614 596 602Z"/>
    <path d="M596 602C607 571 626 549 653 536C653 566 635 588 596 602Z"/>
  </g>
</svg>
