<svg xmlns="http://www.w3.org/2000/svg" viewBox="0 0 900 900" fill="none">
  <g stroke="#9a6a42" stroke-width="1.8" stroke-linecap="round" stroke-linejoin="round" opacity=".95">
    <path d="M92 820C154 690 196 580 216 470C235 365 222 254 176 114"/>
    <path d="M216 469C284 424 338 365 377 287"/>
    <path d="M241 399C320 397 386 374 445 323"/>
    <path d="M185 563C120 530 76 479 49 406"/>
    <path d="M171 632C112 630 64 609 26 568"/>
    <path d="M181 228C247 203 298 157 333 91"/>
    <path d="M212 322C145 295 99 251 69 190"/>
    <path d="M278 426C246 399 225 371 216 337C254 340 285 359 309 393C298 405 288 416 278 426Z"/>
    <path d="M337 357C304 332 284 304 278 273C316 276 348 294 372 328C360 338 348 348 337 357Z"/>
    <path d="M170 511C138 491 115 464 103 430C143 431 174 448 199 478C190 489 180 500 170 511Z"/>
    <path d="M148 604C116 585 94 558 81 526C121 526 152 543 177 573C168 584 158 595 148 604Z"/>
    <path d="M197 279C161 264 135 240 118 207C157 202 191 214 220 241C212 255 204 267 197 279Z"/>
    <path d="M238 211C217 180 212 146 223 109C253 133 270 164 275 202C262 205 250 208 238 211Z"/>
    <path d="M373 289C348 266 337 238 340 205C370 220 391 243 403 276C393 280 383 285 373 289Z"/>
    <path d="M75 408C42 390 21 364 10 331C48 333 79 349 103 378C94 388 85 398 75 408Z"/>
    <path d="M332 90C360 61 397 45 442 42C426 83 396 113 353 133C347 118 340 103 332 90Z"/>
    <path d="M333 91C330 43 346 12 383 0C405 35 408 72 392 110C371 104 352 98 333 91Z"/>
    <path d="M331 91C299 53 295 18 319 0C351 20 369 51 372 94C357 94 344 93 331 91Z"/>
    <path d="M332 91C291 71 260 74 239 99C268 124 303 134 343 128C341 115 337 103 332 91Z"/>
    <path d="M69 190C110 158 151 151 193 169C171 204 140 229 100 244C90 225 79 207 69 190Z"/>
    <path d="M69 190C69 144 89 114 130 101C153 136 156 174 140 216C114 207 91 198 69 190Z"/>
    <path d="M69 190C37 163 8 161 0 189C17 221 47 238 91 241C85 222 78 206 69 190Z"/>
    <path d="M49 406C92 368 139 359 189 379C166 422 128 451 75 468C66 447 58 426 49 406Z"/>
    <path d="M49 406C42 360 58 327 97 309C124 340 132 380 122 428C95 423 71 415 49 406Z"/>
    <path d="M49 406C14 383 0 388 0 421C19 453 50 468 94 467C81 444 66 424 49 406Z"/>
  </g>
  <g stroke="#b28a52" stroke-width="1.35" opacity=".68">
    <circle cx="652" cy="248" r="118"/>
    <circle cx="652" cy="248" r="92"/>
    <path d="M652 130C682 173 698 212 698 248C698 284 682 323 652 366C622 323 606 284 606 248C606 212 622 173 652 130Z"/>
    <path d="M534 248C577 218 616 202 652 202C688 202 727 218 770 248C727 278 688 294 652 294C616 294 577 278 534 248Z"/>
    <path d="M569 165C620 175 659 194 687 222C714 249 733 288 743 339C692 329 653 310 625 282C598 255 579 216 569 165Z"/>
    <path d="M735 165C725 216 706 255 678 282C651 310 612 329 561 339C571 288 590 249 618 222C645 194 684 175 735 165Z"/>
  </g>
</svg>
