<svg xmlns="http://www.w3.org/2000/svg" viewBox="0 0 800 800" fill="none">
<g stroke="#b9823d" stroke-width="2.4" stroke-linecap="round" stroke-linejoin="round" opacity=".82">
<path d="M402 735C396 613 408 504 442 401C470 316 519 236 586 162"/>
<path d="M442 402C386 367 338 323 300 268"/>
<path d="M464 340C530 337 589 318 640 281"/>
<path d="M420 505C363 503 310 485 259 449"/>
<path d="M406 581C462 575 516 552 560 512"/>
<path d="M300 268C252 245 212 202 202 149C249 153 292 180 315 222C330 249 326 265 300 268Z"/>
<path d="M640 281C690 251 727 205 734 154C687 163 648 193 628 237C615 264 619 278 640 281Z"/>
<path d="M259 449C210 421 168 380 154 327C203 331 248 357 272 399C287 426 282 444 259 449Z"/>
<path d="M560 512C607 489 647 452 665 403C619 404 576 425 550 463C534 487 538 504 560 512Z"/>
<path d="M586 162C560 108 563 59 588 27C614 55 626 99 615 137C609 156 599 165 586 162Z"/>
<path d="M586 162C539 144 502 112 486 69C532 69 572 88 596 122C610 142 606 158 586 162Z"/>
<path d="M586 162C625 132 665 121 706 130C683 167 649 190 612 193C593 195 582 184 586 162Z"/>
<path d="M586 162C549 194 534 235 543 279C584 257 610 224 615 186C618 169 608 159 586 162Z"/>
<path d="M586 162C623 190 644 226 642 269C600 250 572 219 566 182C563 166 571 158 586 162Z"/>
<path d="M586 162C575 126 579 91 599 58"/>
<path d="M573 174L535 222M593 178L620 231M600 154L655 149"/>
<circle cx="535" cy="222" r="4" fill="#b9823d"/><circle cx="620" cy="231" r="4" fill="#b9823d"/><circle cx="655" cy="149" r="4" fill="#b9823d"/>
</g>
</svg>
