<svg xmlns="http://www.w3.org/2000/svg" viewBox="0 0 900 900">
  <g fill="none" stroke="#744b34" stroke-width="2.2" stroke-linecap="round" stroke-linejoin="round" opacity=".92">
    <path d="M92 832C162 706 214 572 266 430C303 329 350 226 433 92"/>
    <path d="M177 668C116 641 73 590 58 524C130 530 181 576 177 668Z"/>
    <path d="M232 520C169 486 132 430 127 358C202 374 246 432 232 520Z"/>
    <path d="M299 365C252 319 237 259 253 194C316 229 337 291 299 365Z"/>
    <path d="M363 230C333 180 335 128 363 77C409 122 409 178 363 230Z"/>

    <path d="M428 155C389 93 408 45 447 18C466 71 460 116 428 155Z"/>
    <path d="M431 156C449 91 489 58 541 58C531 116 493 148 431 156Z"/>
    <path d="M430 158C492 151 538 174 559 220C498 229 454 209 430 158Z"/>
    <path d="M428 158C465 209 464 257 432 298C394 249 393 204 428 158Z"/>
    <path d="M426 157C382 206 335 217 289 192C332 151 378 141 426 157Z"/>
    <path d="M427 155C365 146 328 111 318 62C376 68 413 98 427 155Z"/>
    <circle cx="429" cy="158" r="10"/>
    <path d="M429 158l-27-81M429 158l31-81M429 158l77-36M429 158l66 48M429 158l4 82M429 158l-72 30"/>
    <path d="M398 80l-8-14M462 80l8-14M508 121l16-4M497 205l14 9M433 241l1 17M357 189l-15 7"/>

    <path d="M493 468C545 385 611 314 704 250"/>
    <path d="M557 384C534 325 544 275 586 232C624 284 614 335 557 384Z"/>
    <path d="M622 326C620 267 649 223 701 196C720 251 694 297 622 326Z"/>

    <path d="M703 252C669 204 682 161 716 134C738 177 735 216 703 252Z"/>
    <path d="M705 254C726 204 762 181 805 187C790 232 758 255 705 254Z"/>
    <path d="M705 256C754 250 789 268 806 306C757 314 722 297 705 256Z"/>
    <path d="M703 257C731 299 726 337 696 367C666 327 670 291 703 257Z"/>
    <path d="M701 255C664 293 626 299 590 276C627 242 663 236 701 255Z"/>
    <circle cx="704" cy="255" r="8"/>

    <path d="M247 630C324 626 396 641 469 680C526 711 580 753 637 830"/>
    <path d="M389 653C348 603 341 554 366 507C416 545 425 594 389 653Z"/>
    <path d="M486 690C468 633 485 584 532 548C566 599 551 647 486 690Z"/>
    <path d="M566 749C570 691 603 650 656 631C666 686 636 728 566 749Z"/>
  </g>
</svg>
