<svg xmlns="http://www.w3.org/2000/svg" viewBox="0 0 600 420" fill="none">
 <g stroke="#a97543" stroke-width="2" stroke-linecap="round" stroke-linejoin="round">
  <path d="M300 360C252 310 226 262 224 216C259 225 286 247 300 282C314 247 341 225 376 216C374 262 348 310 300 360Z"/>
  <path d="M300 360C216 319 164 275 144 226C191 220 234 237 267 278"/>
  <path d="M300 360C384 319 436 275 456 226C409 220 366 237 333 278"/>
  <path d="M265 278C228 250 204 213 194 166C238 175 274 201 300 244C326 201 362 175 406 166C396 213 372 250 335 278"/>
  <path d="M300 244C276 198 270 154 282 112C305 136 317 167 318 205C339 166 371 139 414 125C407 171 386 208 351 238"/>
  <path d="M300 244C324 198 330 154 318 112C295 136 283 167 282 205C261 166 229 139 186 125C193 171 214 208 249 238"/>
  <path d="M300 360C244 374 196 378 156 372"/>
  <path d="M300 360C356 374 404 378 444 372"/>
 </g>
</svg>
