<svg xmlns="http://www.w3.org/2000/svg" viewBox="0 0 520 360" fill="none">
<g stroke="#c18b3b" stroke-width="2.2" stroke-linecap="round" stroke-linejoin="round">
<path d="M260 309C194 285 147 241 124 178C186 180 233 213 260 263C287 213 334 180 396 178C373 241 326 285 260 309Z"/>
<path d="M260 299C212 248 194 192 208 130C250 161 269 204 260 263C251 204 270 161 312 130C326 192 308 248 260 299Z"/>
<path d="M260 270C220 217 210 160 230 97C264 135 273 181 260 234C247 181 256 135 290 97C310 160 300 217 260 270Z"/>
<path d="M260 230C233 186 236 137 260 77C284 137 287 186 260 230Z"/>
<path d="M260 309C166 320 88 292 39 226C107 219 164 236 210 276"/>
<path d="M260 309C354 320 432 292 481 226C413 219 356 236 310 276"/>
<path d="M84 322C170 334 350 334 436 322"/>
</g></svg>
