<svg xmlns="http://www.w3.org/2000/svg" viewBox="0 0 400 400">
<g fill="none" stroke="#8b5d3f" stroke-width="1.3" opacity=".9">
<circle cx="200" cy="200" r="180"/><circle cx="200" cy="200" r="145"/><circle cx="200" cy="200" r="105"/><circle cx="200" cy="200" r="65"/>
<g>
<ellipse cx="200" cy="75" rx="24" ry="78" transform="rotate(0 200 200)"/><ellipse cx="200" cy="75" rx="24" ry="78" transform="rotate(15 200 200)"/><ellipse cx="200" cy="75" rx="24" ry="78" transform="rotate(30 200 200)"/><ellipse cx="200" cy="75" rx="24" ry="78" transform="rotate(45 200 200)"/><ellipse cx="200" cy="75" rx="24" ry="78" transform="rotate(60 200 200)"/><ellipse cx="200" cy="75" rx="24" ry="78" transform="rotate(75 200 200)"/><ellipse cx="200" cy="75" rx="24" ry="78" transform="rotate(90 200 200)"/><ellipse cx="200" cy="75" rx="24" ry="78" transform="rotate(105 200 200)"/><ellipse cx="200" cy="75" rx="24" ry="78" transform="rotate(120 200 200)"/><ellipse cx="200" cy="75" rx="24" ry="78" transform="rotate(135 200 200)"/><ellipse cx="200" cy="75" rx="24" ry="78" transform="rotate(150 200 200)"/><ellipse cx="200" cy="75" rx="24" ry="78" transform="rotate(165 200 200)"/><ellipse cx="200" cy="75" rx="24" ry="78" transform="rotate(180 200 200)"/><ellipse cx="200" cy="75" rx="24" ry="78" transform="rotate(195 200 200)"/><ellipse cx="200" cy="75" rx="24" ry="78" transform="rotate(210 200 200)"/><ellipse cx="200" cy="75" rx="24" ry="78" transform="rotate(225 200 200)"/><ellipse cx="200" cy="75" rx="24" ry="78" transform="rotate(240 200 200)"/><ellipse cx="200" cy="75" rx="24" ry="78" transform="rotate(255 200 200)"/><ellipse cx="200" cy="75" rx="24" ry="78" transform="rotate(270 200 200)"/><ellipse cx="200" cy="75" rx="24" ry="78" transform="rotate(285 200 200)"/><ellipse cx="200" cy="75" rx="24" ry="78" transform="rotate(300 200 200)"/><ellipse cx="200" cy="75" rx="24" ry="78" transform="rotate(315 200 200)"/><ellipse cx="200" cy="75" rx="24" ry="78" transform="rotate(330 200 200)"/><ellipse cx="200" cy="75" rx="24" ry="78" transform="rotate(345 200 200)"/>
</g><g opacity=".7"><path d="M200 200 C165 145 165 95 200 50 C235 95 235 145 200 200Z" transform="rotate(0 200 200)"/><path d="M200 200 C165 145 165 95 200 50 C235 95 235 145 200 200Z" transform="rotate(30 200 200)"/><path d="M200 200 C165 145 165 95 200 50 C235 95 235 145 200 200Z" transform="rotate(60 200 200)"/><path d="M200 200 C165 145 165 95 200 50 C235 95 235 145 200 200Z" transform="rotate(90 200 200)"/><path d="M200 200 C165 145 165 95 200 50 C235 95 235 145 200 200Z" transform="rotate(120 200 200)"/><path d="M200 200 C165 145 165 95 200 50 C235 95 235 145 200 200Z" transform="rotate(150 200 200)"/><path d="M200 200 C165 145 165 95 200 50 C235 95 235 145 200 200Z" transform="rotate(180 200 200)"/><path d="M200 200 C165 145 165 95 200 50 C235 95 235 145 200 200Z" transform="rotate(210 200 200)"/><path d="M200 200 C165 145 165 95 200 50 C235 95 235 145 200 200Z" transform="rotate(240 200 200)"/><path d="M200 200 C165 145 165 95 200 50 C235 95 235 145 200 200Z" transform="rotate(270 200 200)"/><path d="M200 200 C165 145 165 95 200 50 C235 95 235 145 200 200Z" transform="rotate(300 200 200)"/><path d="M200 200 C165 145 165 95 200 50 C235 95 235 145 200 200Z" transform="rotate(330 200 200)"/></g>
</g></svg>